HIERARCHY
ROOT Hips
{
	OFFSET 0.000000 88.474243 0.000000
	CHANNELS 6 Xposition Yposition Zposition Zrotation Yrotation Xrotation 
	JOINT Hips_Spine
	{
		OFFSET 0.000000 0.000000 0.000000
		CHANNELS 3 Zrotation Yrotation Xrotation
		JOINT Spine
		{
			OFFSET 0.005100 8.711998 -0.691000
			CHANNELS 3 Zrotation Yrotation Xrotation
			JOINT Spine1
			{
				OFFSET -0.009200 8.660301 -1.275000
				CHANNELS 3 Zrotation Yrotation Xrotation
				JOINT Spine2
				{
					OFFSET 0.006300 9.852501 -1.857000
					CHANNELS 3 Zrotation Yrotation Xrotation
					JOINT Spine2_Neck
					{
						OFFSET 0.000000 0.000000 0.000000
						CHANNELS 3 Zrotation Yrotation Xrotation
						JOINT Neck
						{
							OFFSET 0.016300 11.420799 -0.263300
							CHANNELS 3 Zrotation Yrotation Xrotation
							End Site #name: Head
							{
								OFFSET -0.019200 9.262405 2.362500
							}
						}
					}
					JOINT Spine2_LeftShoulder
					{
						OFFSET 0.000000 0.000000 0.000000
						CHANNELS 3 Zrotation Yrotation Xrotation
						JOINT LeftShoulder
						{
							OFFSET 5.616900 6.732201 -0.345700
							CHANNELS 3 Zrotation Yrotation Xrotation
							JOINT LeftArm
							{
								OFFSET 10.664888 -0.183372 -2.440700
								CHANNELS 3 Zrotation Yrotation Xrotation
								JOINT LeftForeArm
								{
									OFFSET 27.459126 0.000000 0.000000
									CHANNELS 3 Zrotation Yrotation Xrotation
									End Site #name: LeftHand
									{
										OFFSET 21.306858 0.000000 0.000000
									}
								}
							}
						}
					}
					JOINT Spine2_RightShoulder
					{
						OFFSET 0.000000 0.000000 0.000000
						CHANNELS 3 Zrotation Yrotation Xrotation
						JOINT RightShoulder
						{
							OFFSET -5.580300 6.737503 -0.344400
							CHANNELS 3 Zrotation Yrotation Xrotation
							JOINT RightArm
							{
								OFFSET -10.679335 -0.188484 -2.383900
								CHANNELS 3 Zrotation Yrotation Xrotation
								JOINT RightForeArm
								{
									OFFSET -27.503529 0.000000 0.000000
									CHANNELS 3 Zrotation Yrotation Xrotation
									End Site #name: RightHand
									{
										OFFSET -21.306808 0.000000 0.000000
									}
								}
							}
						}
					}
				}
			}
		}
	}
	JOINT Hips_LeftUpLeg
	{
		OFFSET 0.000000 0.000000 0.000000
		CHANNELS 3 Zrotation Yrotation Xrotation
		JOINT LeftUpLeg
		{
			OFFSET 6.857700 -6.739601 0.312100
			CHANNELS 3 Zrotation Yrotation Xrotation
			JOINT LeftLeg
			{
				OFFSET -0.367590 -34.731552 -4.572400
				CHANNELS 3 Zrotation Yrotation Xrotation
				End Site #name: LeftFoot
				{
					OFFSET 0.367590 -34.656704 -6.067400
				}
			}
		}
	}
	JOINT Hips_RightUpLeg
	{
		OFFSET 0.000000 0.000000 0.000000
		CHANNELS 3 Zrotation Yrotation Xrotation
		JOINT RightUpLeg
		{
			OFFSET -6.876100 -6.733299 0.301000
			CHANNELS 3 Zrotation Yrotation Xrotation
			JOINT RightLeg
			{
				OFFSET 0.347353 -34.795158 -4.515900
				CHANNELS 3 Zrotation Yrotation Xrotation
				End Site #name: RightFoot
				{
					OFFSET -0.347353 -34.589367 -6.070300
				}
			}
		}
	}
}
MOTION
Frames: 6
Frame Time: 0.041667
1.897664 -2.486780 -1.012452 -118.663093 85.306567 -114.699426 0.000000 -0.000000 0.000000 7.081835 5.385829 -2.810687 2.459979 0.195967 1.493243 0.000000 0.000000 0.000000 2.571652 0.237474 2.256987 -2.287016 -18.893724 -2.296462 1.580399 0.216781 1.304429 -9.259515 3.443866 -0.948834 -76.588007 -16.624413 -0.876093 -1.556023 1.548812 2.497835 2.372901 0.523643 1.825239 14.357291 16.103953 7.120224 53.580676 18.311387 -15.930624 -179.357400 69.075485 -174.896917 0.000000 -0.000000 -0.000000 1.155230 17.719302 -20.287915 -12.391990 -39.538389 8.860480 0.000000 0.000000 -0.000000 -3.246545 -29.223503 -4.190122 6.628402 7.226592 2.839269 
1.892221 -2.557678 -1.036182 -102.669170 85.521006 -98.737477 0.000000 -0.000000 0.000000 7.353674 5.186286 -2.833629 2.546374 0.173637 1.563003 0.000000 0.000000 0.000000 2.645337 0.205309 2.321426 -2.008464 -19.193575 -2.166671 1.628217 0.207647 1.351768 -9.365445 3.628523 -1.051157 -76.779810 -16.636510 -1.115117 -1.569971 1.847118 2.462146 2.452194 0.471369 1.949993 14.402135 16.103647 7.239062 52.981492 18.532349 -16.869591 -179.545478 68.262365 -175.073949 0.000000 -0.000000 -0.000000 1.415882 17.894677 -20.259472 -13.264578 -40.156612 9.554062 0.000000 0.000000 -0.000000 -2.874428 -29.728528 -4.323123 6.492475 7.395471 3.106112 
1.882689 -2.625705 -1.059756 -85.453805 85.366270 -81.550820 0.000000 -0.000000 0.000000 7.608491 4.960867 -2.821579 2.618237 0.149489 1.639489 0.000000 0.000000 0.000000 2.709453 0.173236 2.390137 -1.768507 -19.484228 -2.045306 1.667184 0.196646 1.404610 -9.463114 3.796578 -1.145169 -76.937448 -16.658099 -1.323950 -1.581574 2.156465 2.423371 2.515783 0.417145 2.073906 14.441967 16.104677 7.363107 52.439403 18.662005 -17.699665 -179.693959 67.528988 -175.211611 0.000000 -0.000000 -0.000000 1.794605 18.418740 -20.256187 -14.436300 -40.714983 10.578638 0.000000 0.000000 -0.000000 -2.464393 -30.043516 -4.464744 6.363592 7.535189 3.369116 
1.870732 -2.689834 -1.082296 -71.538785 84.893936 -67.653578 0.000000 -0.000000 -0.000000 7.829172 4.737331 -2.805592 2.677847 0.125951 1.723822 0.000000 0.000000 0.000000 2.763257 0.143163 2.456878 -1.574416 -19.771232 -1.928259 1.697930 0.185188 1.457554 -9.553404 3.946486 -1.228657 -77.092668 -16.670272 -1.522709 -1.597130 2.468844 2.377405 2.568731 0.363216 2.196775 14.475422 16.102508 7.494995 51.996003 18.733862 -18.467986 -179.817982 66.812456 -175.325013 0.000000 -0.000000 -0.000000 2.262060 19.142432 -20.448908 -15.959536 -41.141643 12.155381 0.000000 0.000000 -0.000000 -2.053055 -30.384154 -4.627350 6.267303 7.634168 3.632586 
1.859565 -2.750833 -1.102238 -60.637012 84.248316 -56.754928 0.000000 -0.000000 -0.000000 8.017710 4.524423 -2.780549 2.722967 0.105127 1.822871 0.000000 0.000000 0.000000 2.808283 0.114094 2.521787 -1.385524 -20.082999 -1.817573 1.719854 0.173467 1.512905 -9.629200 4.078200 -1.300771 -77.219660 -16.703048 -1.706055 -1.614793 2.786734 2.333656 2.611633 0.310312 2.315502 14.493852 16.119505 7.635738 51.635030 18.742459 -19.195182 -179.930010 66.012224 -175.428623 0.000000 -0.000000 -0.000000 2.871519 19.705757 -20.625524 -17.321824 -41.508373 13.578677 0.000000 0.000000 -0.000000 -1.666698 -30.716248 -4.809722 6.164766 7.684154 3.905467 
1.851562 -2.810103 -1.119350 -52.765150 83.551540 -48.870289 0.000000 -0.000000 -0.000000 8.163293 4.295331 -2.747074 2.752266 0.083013 1.923504 0.000000 0.000000 0.000000 2.842510 0.085085 2.584795 -1.209056 -20.414200 -1.719678 1.730678 0.160807 1.570704 -9.678160 4.171381 -1.354243 -77.323307 -16.753288 -1.842369 -1.628603 3.073200 2.290764 2.641995 0.257200 2.428869 14.492709 16.165901 7.780078 51.360116 18.656886 -19.769444 179.967822 65.099770 -175.516314 0.000000 -0.000000 -0.000000 3.576680 20.170628 -20.769831 -18.071472 -41.266143 14.526464 0.000000 0.000000 -0.000000 -1.302730 -31.004720 -5.007639 6.057555 7.682941 4.172853 
